<svg width="25" height="25" viewBox="0 0 25 25" fill="none" xmlns="http://www.w3.org/2000/svg">
<path fill-rule="evenodd" clip-rule="evenodd" d="M8.33325 5.20834C8.33325 4.37954 8.66249 3.58469 9.24854 2.99863C9.83459 2.41258 10.6295 2.08334 11.4583 2.08334H19.7916C20.6204 2.08334 21.4152 2.41258 22.0013 2.99863C22.5873 3.58469 22.9166 4.37954 22.9166 5.20834V19.7917C22.9166 20.6205 22.5873 21.4153 22.0013 22.0014C21.4152 22.5874 20.6204 22.9167 19.7916 22.9167H11.4583C10.6295 22.9167 9.83459 22.5874 9.24854 22.0014C8.66249 21.4153 8.33325 20.6205 8.33325 19.7917V5.20834ZM11.4583 4.16668C11.182 4.16668 10.917 4.27642 10.7217 4.47177C10.5263 4.66712 10.4166 4.93208 10.4166 5.20834V19.7917C10.4166 20.0679 10.5263 20.3329 10.7217 20.5282C10.917 20.7236 11.182 20.8333 11.4583 20.8333H19.7916C20.0679 20.8333 20.3328 20.7236 20.5282 20.5282C20.7235 20.3329 20.8333 20.0679 20.8333 19.7917V5.20834C20.8333 4.93208 20.7235 4.66712 20.5282 4.47177C20.3328 4.27642 20.0679 4.16668 19.7916 4.16668H11.4583Z" fill="#B9B9B9"/>
<path fill-rule="evenodd" clip-rule="evenodd" d="M2.08325 11.4583C2.08325 10.6295 2.41249 9.83469 2.99854 9.24863C3.58459 8.66258 4.37945 8.33334 5.20825 8.33334H9.89575V10.4167H5.20825C4.93198 10.4167 4.66703 10.5264 4.47168 10.7218C4.27633 10.9171 4.16659 11.1821 4.16659 11.4583V19.7917C4.16659 20.0679 4.27633 20.3329 4.47168 20.5282C4.66703 20.7236 4.93198 20.8333 5.20825 20.8333H15.1041V22.9167H5.20825C4.37945 22.9167 3.58459 22.5874 2.99854 22.0014C2.41249 21.4153 2.08325 20.6205 2.08325 19.7917V11.4583Z" fill="#B9B9B9"/>
<path fill-rule="evenodd" clip-rule="evenodd" d="M12.5 17.7083C12.5 17.1558 12.7195 16.6259 13.1102 16.2352C13.5009 15.8445 14.0308 15.625 14.5833 15.625H16.6667C17.2192 15.625 17.7491 15.8445 18.1398 16.2352C18.5305 16.6259 18.75 17.1558 18.75 17.7083V20.8333H16.6667V17.7083H14.5833V20.8333H12.5V17.7083Z" fill="#B9B9B9"/>
<path d="M12.4999 6.25001C12.4999 5.97374 12.6097 5.70879 12.805 5.51344C13.0004 5.31809 13.2653 5.20834 13.5416 5.20834C13.8179 5.20834 14.0828 5.31809 14.2782 5.51344C14.4735 5.70879 14.5833 5.97374 14.5833 6.25001V7.29168C14.5833 7.56794 14.4735 7.8329 14.2782 8.02825C14.0828 8.2236 13.8179 8.33334 13.5416 8.33334C13.2653 8.33334 13.0004 8.2236 12.805 8.02825C12.6097 7.8329 12.4999 7.56794 12.4999 7.29168V6.25001ZM12.4999 11.4583C12.4999 11.1821 12.6097 10.9171 12.805 10.7218C13.0004 10.5264 13.2653 10.4167 13.5416 10.4167C13.8179 10.4167 14.0828 10.5264 14.2782 10.7218C14.4735 10.9171 14.5833 11.1821 14.5833 11.4583V12.5C14.5833 12.7763 14.4735 13.0412 14.2782 13.2366C14.0828 13.4319 13.8179 13.5417 13.5416 13.5417C13.2653 13.5417 13.0004 13.4319 12.805 13.2366C12.6097 13.0412 12.4999 12.7763 12.4999 12.5V11.4583ZM5.20825 15.625C5.20825 15.3487 5.318 15.0838 5.51335 14.8884C5.7087 14.6931 5.97365 14.5833 6.24992 14.5833C6.52619 14.5833 6.79114 14.6931 6.98649 14.8884C7.18184 15.0838 7.29159 15.3487 7.29159 15.625V16.6667C7.29159 16.9429 7.18184 17.2079 6.98649 17.4032C6.79114 17.5986 6.52619 17.7083 6.24992 17.7083C5.97365 17.7083 5.7087 17.5986 5.51335 17.4032C5.318 17.2079 5.20825 16.9429 5.20825 16.6667V15.625ZM16.6666 6.25001C16.6666 5.97374 16.7763 5.70879 16.9717 5.51344C17.167 5.31809 17.432 5.20834 17.7083 5.20834C17.9845 5.20834 18.2495 5.31809 18.4448 5.51344C18.6402 5.70879 18.7499 5.97374 18.7499 6.25001V7.29168C18.7499 7.56794 18.6402 7.8329 18.4448 8.02825C18.2495 8.2236 17.9845 8.33334 17.7083 8.33334C17.432 8.33334 17.167 8.2236 16.9717 8.02825C16.7763 7.8329 16.6666 7.56794 16.6666 7.29168V6.25001ZM16.6666 11.4583C16.6666 11.1821 16.7763 10.9171 16.9717 10.7218C17.167 10.5264 17.432 10.4167 17.7083 10.4167C17.9845 10.4167 18.2495 10.5264 18.4448 10.7218C18.6402 10.9171 18.7499 11.1821 18.7499 11.4583V12.5C18.7499 12.7763 18.6402 13.0412 18.4448 13.2366C18.2495 13.4319 17.9845 13.5417 17.7083 13.5417C17.432 13.5417 17.167 13.4319 16.9717 13.2366C16.7763 13.0412 16.6666 12.7763 16.6666 12.5V11.4583Z" fill="#B9B9B9"/>
</svg>
