<svg width="236" height="65" viewBox="0 0 236 65" fill="none" xmlns="http://www.w3.org/2000/svg">
<path d="M96.91 33.01H88.57L87.19 37H82.78L90.31 16.03H95.2L102.73 37H98.29L96.91 33.01ZM95.77 29.65L92.74 20.89L89.71 29.65H95.77ZM126.185 20.14C128.225 20.14 129.865 20.77 131.105 22.03C132.365 23.27 132.995 25.01 132.995 27.25V37H128.795V27.82C128.795 26.52 128.465 25.53 127.805 24.85C127.145 24.15 126.245 23.8 125.105 23.8C123.965 23.8 123.055 24.15 122.375 24.85C121.715 25.53 121.385 26.52 121.385 27.82V37H117.185V27.82C117.185 26.52 116.855 25.53 116.195 24.85C115.535 24.15 114.635 23.8 113.495 23.8C112.335 23.8 111.415 24.15 110.735 24.85C110.075 25.53 109.745 26.52 109.745 27.82V37H105.545V20.38H109.745V22.39C110.285 21.69 110.975 21.14 111.815 20.74C112.675 20.34 113.615 20.14 114.635 20.14C115.935 20.14 117.095 20.42 118.115 20.98C119.135 21.52 119.925 22.3 120.485 23.32C121.025 22.36 121.805 21.59 122.825 21.01C123.865 20.43 124.985 20.14 126.185 20.14ZM152.25 22.54C152.25 23.66 151.98 24.71 151.44 25.69C150.92 26.67 150.09 27.46 148.95 28.06C147.83 28.66 146.41 28.96 144.69 28.96H141.18V37H136.98V16.06H144.69C146.31 16.06 147.69 16.34 148.83 16.9C149.97 17.46 150.82 18.23 151.38 19.21C151.96 20.19 152.25 21.3 152.25 22.54ZM144.51 25.57C145.67 25.57 146.53 25.31 147.09 24.79C147.65 24.25 147.93 23.5 147.93 22.54C147.93 20.5 146.79 19.48 144.51 19.48H141.18V25.57H144.51ZM159.432 22.96C159.972 22.08 160.672 21.39 161.532 20.89C162.412 20.39 163.412 20.14 164.532 20.14V24.55H163.422C162.102 24.55 161.102 24.86 160.422 25.48C159.762 26.1 159.432 27.18 159.432 28.72V37H155.232V20.38H159.432V22.96ZM174.741 37.27C173.141 37.27 171.701 36.92 170.421 36.22C169.141 35.5 168.131 34.49 167.391 33.19C166.671 31.89 166.311 30.39 166.311 28.69C166.311 26.99 166.681 25.49 167.421 24.19C168.181 22.89 169.211 21.89 170.511 21.19C171.811 20.47 173.261 20.11 174.861 20.11C176.461 20.11 177.911 20.47 179.211 21.19C180.511 21.89 181.531 22.89 182.271 24.19C183.031 25.49 183.411 26.99 183.411 28.69C183.411 30.39 183.021 31.89 182.241 33.19C181.481 34.49 180.441 35.5 179.121 36.22C177.821 36.92 176.361 37.27 174.741 37.27ZM174.741 33.61C175.501 33.61 176.211 33.43 176.871 33.07C177.551 32.69 178.091 32.13 178.491 31.39C178.891 30.65 179.091 29.75 179.091 28.69C179.091 27.11 178.671 25.9 177.831 25.06C177.011 24.2 176.001 23.77 174.801 23.77C173.601 23.77 172.591 24.2 171.771 25.06C170.971 25.9 170.571 27.11 170.571 28.69C170.571 30.27 170.961 31.49 171.741 32.35C172.541 33.19 173.541 33.61 174.741 33.61ZM193.002 20.11C194.242 20.11 195.332 20.36 196.272 20.86C197.212 21.34 197.952 21.97 198.492 22.75V20.38H202.722V37.12C202.722 38.66 202.412 40.03 201.792 41.23C201.172 42.45 200.242 43.41 199.002 44.11C197.762 44.83 196.262 45.19 194.502 45.19C192.142 45.19 190.202 44.64 188.682 43.54C187.182 42.44 186.332 40.94 186.132 39.04H190.302C190.522 39.8 190.992 40.4 191.712 40.84C192.452 41.3 193.342 41.53 194.382 41.53C195.602 41.53 196.592 41.16 197.352 40.42C198.112 39.7 198.492 38.6 198.492 37.12V34.54C197.952 35.32 197.202 35.97 196.242 36.49C195.302 37.01 194.222 37.27 193.002 37.27C191.602 37.27 190.322 36.91 189.162 36.19C188.002 35.47 187.082 34.46 186.402 33.16C185.742 31.84 185.412 30.33 185.412 28.63C185.412 26.95 185.742 25.46 186.402 24.16C187.082 22.86 187.992 21.86 189.132 21.16C190.292 20.46 191.582 20.11 193.002 20.11ZM198.492 28.69C198.492 27.67 198.292 26.8 197.892 26.08C197.492 25.34 196.952 24.78 196.272 24.4C195.592 24 194.862 23.8 194.082 23.8C193.302 23.8 192.582 23.99 191.922 24.37C191.262 24.75 190.722 25.31 190.302 26.05C189.902 26.77 189.702 27.63 189.702 28.63C189.702 29.63 189.902 30.51 190.302 31.27C190.722 32.01 191.262 32.58 191.922 32.98C192.602 33.38 193.322 33.58 194.082 33.58C194.862 33.58 195.592 33.39 196.272 33.01C196.952 32.61 197.492 32.05 197.892 31.33C198.292 30.59 198.492 29.71 198.492 28.69ZM222.274 28.33C222.274 28.93 222.234 29.47 222.154 29.95H210.004C210.104 31.15 210.524 32.09 211.264 32.77C212.004 33.45 212.914 33.79 213.994 33.79C215.554 33.79 216.664 33.12 217.324 31.78H221.854C221.374 33.38 220.454 34.7 219.094 35.74C217.734 36.76 216.064 37.27 214.084 37.27C212.484 37.27 211.044 36.92 209.764 36.22C208.504 35.5 207.514 34.49 206.794 33.19C206.094 31.89 205.744 30.39 205.744 28.69C205.744 26.97 206.094 25.46 206.794 24.16C207.494 22.86 208.474 21.86 209.734 21.16C210.994 20.46 212.444 20.11 214.084 20.11C215.664 20.11 217.074 20.45 218.314 21.13C219.574 21.81 220.544 22.78 221.224 24.04C221.924 25.28 222.274 26.71 222.274 28.33ZM217.924 27.13C217.904 26.05 217.514 25.19 216.754 24.55C215.994 23.89 215.064 23.56 213.964 23.56C212.924 23.56 212.044 23.88 211.324 24.52C210.624 25.14 210.194 26.01 210.034 27.13H217.924ZM229.54 22.96C230.08 22.08 230.78 21.39 231.64 20.89C232.52 20.39 233.52 20.14 234.64 20.14V24.55H233.53C232.21 24.55 231.21 24.86 230.53 25.48C229.87 26.1 229.54 27.18 229.54 28.72V37H225.34V20.38H229.54V22.96Z" fill="white"/>
<path d="M89.184 46.416V52H88.064V49.624H85.672V52H84.552V46.416H85.672V48.712H88.064V46.416H89.184ZM94.4064 49.688C94.4064 49.848 94.3957 49.992 94.3744 50.12H91.1344C91.161 50.44 91.273 50.6907 91.4704 50.872C91.6677 51.0533 91.9104 51.144 92.1984 51.144C92.6144 51.144 92.9104 50.9653 93.0864 50.608H94.2944C94.1664 51.0347 93.921 51.3867 93.5584 51.664C93.1957 51.936 92.7504 52.072 92.2224 52.072C91.7957 52.072 91.4117 51.9787 91.0704 51.792C90.7344 51.6 90.4704 51.3307 90.2784 50.984C90.0917 50.6373 89.9984 50.2373 89.9984 49.784C89.9984 49.3253 90.0917 48.9227 90.2784 48.576C90.465 48.2293 90.7264 47.9627 91.0624 47.776C91.3984 47.5893 91.785 47.496 92.2224 47.496C92.6437 47.496 93.0197 47.5867 93.3504 47.768C93.6864 47.9493 93.945 48.208 94.1264 48.544C94.313 48.8747 94.4064 49.256 94.4064 49.688ZM93.2464 49.368C93.241 49.08 93.137 48.8507 92.9344 48.68C92.7317 48.504 92.4837 48.416 92.1904 48.416C91.913 48.416 91.6784 48.5013 91.4864 48.672C91.2997 48.8373 91.185 49.0693 91.1424 49.368H93.2464ZM96.3439 46.08V52H95.2239V46.08H96.3439ZM98.5704 46.08V52H97.4504V46.08H98.5704ZM101.645 52.072C101.218 52.072 100.834 51.9787 100.493 51.792C100.152 51.6 99.8823 51.3307 99.685 50.984C99.493 50.6373 99.397 50.2373 99.397 49.784C99.397 49.3307 99.4957 48.9307 99.693 48.584C99.8957 48.2373 100.17 47.9707 100.517 47.784C100.864 47.592 101.25 47.496 101.677 47.496C102.104 47.496 102.49 47.592 102.837 47.784C103.184 47.9707 103.456 48.2373 103.653 48.584C103.856 48.9307 103.957 49.3307 103.957 49.784C103.957 50.2373 103.853 50.6373 103.645 50.984C103.442 51.3307 103.165 51.6 102.813 51.792C102.466 51.9787 102.077 52.072 101.645 52.072ZM101.645 51.096C101.848 51.096 102.037 51.048 102.213 50.952C102.394 50.8507 102.538 50.7013 102.645 50.504C102.752 50.3067 102.805 50.0667 102.805 49.784C102.805 49.3627 102.693 49.04 102.469 48.816C102.25 48.5867 101.981 48.472 101.661 48.472C101.341 48.472 101.072 48.5867 100.853 48.816C100.64 49.04 100.533 49.3627 100.533 49.784C100.533 50.2053 100.637 50.5307 100.845 50.76C101.058 50.984 101.325 51.096 101.645 51.096ZM106.003 50.824L105.067 53.072H104.347L104.867 50.824H106.003ZM114.274 46.416L112.714 52H111.394L110.346 48.024L109.25 52L107.938 52.008L106.434 46.416H107.634L108.618 50.752L109.754 46.416H111.002L112.074 50.728L113.066 46.416H114.274ZM116.973 52.072C116.546 52.072 116.162 51.9787 115.821 51.792C115.48 51.6 115.21 51.3307 115.013 50.984C114.821 50.6373 114.725 50.2373 114.725 49.784C114.725 49.3307 114.824 48.9307 115.021 48.584C115.224 48.2373 115.498 47.9707 115.845 47.784C116.192 47.592 116.578 47.496 117.005 47.496C117.432 47.496 117.818 47.592 118.165 47.784C118.512 47.9707 118.784 48.2373 118.981 48.584C119.184 48.9307 119.285 49.3307 119.285 49.784C119.285 50.2373 119.181 50.6373 118.973 50.984C118.77 51.3307 118.493 51.6 118.141 51.792C117.794 51.9787 117.405 52.072 116.973 52.072ZM116.973 51.096C117.176 51.096 117.365 51.048 117.541 50.952C117.722 50.8507 117.866 50.7013 117.973 50.504C118.08 50.3067 118.133 50.0667 118.133 49.784C118.133 49.3627 118.021 49.04 117.797 48.816C117.578 48.5867 117.309 48.472 116.989 48.472C116.669 48.472 116.4 48.5867 116.181 48.816C115.968 49.04 115.861 49.3627 115.861 49.784C115.861 50.2053 115.965 50.5307 116.173 50.76C116.386 50.984 116.653 51.096 116.973 51.096ZM121.227 48.256C121.371 48.0213 121.557 47.8373 121.787 47.704C122.021 47.5707 122.288 47.504 122.587 47.504V48.68H122.291C121.939 48.68 121.672 48.7627 121.491 48.928C121.315 49.0933 121.227 49.3813 121.227 49.792V52H120.107V47.568H121.227V48.256ZM124.461 46.08V52H123.341V46.08H124.461ZM125.28 49.768C125.28 49.32 125.368 48.9227 125.544 48.576C125.725 48.2293 125.97 47.9627 126.28 47.776C126.589 47.5893 126.933 47.496 127.312 47.496C127.6 47.496 127.874 47.56 128.136 47.688C128.397 47.8107 128.605 47.976 128.76 48.184V46.08H129.896V52H128.76V51.344C128.621 51.5627 128.426 51.7387 128.176 51.872C127.925 52.0053 127.634 52.072 127.304 52.072C126.93 52.072 126.589 51.976 126.28 51.784C125.97 51.592 125.725 51.3227 125.544 50.976C125.368 50.624 125.28 50.2213 125.28 49.768ZM128.768 49.784C128.768 49.512 128.714 49.28 128.608 49.088C128.501 48.8907 128.357 48.7413 128.176 48.64C127.994 48.5333 127.8 48.48 127.592 48.48C127.384 48.48 127.192 48.5307 127.016 48.632C126.84 48.7333 126.696 48.8827 126.584 49.08C126.477 49.272 126.424 49.5013 126.424 49.768C126.424 50.0347 126.477 50.2693 126.584 50.472C126.696 50.6693 126.84 50.8213 127.016 50.928C127.197 51.0347 127.389 51.088 127.592 51.088C127.8 51.088 127.994 51.0373 128.176 50.936C128.357 50.8293 128.501 50.68 128.608 50.488C128.714 50.2907 128.768 50.056 128.768 49.784ZM132.438 46.32L132.31 50.184H131.366L131.23 46.32H132.438ZM131.862 52.056C131.659 52.056 131.491 51.9947 131.358 51.872C131.23 51.744 131.166 51.5867 131.166 51.4C131.166 51.2133 131.23 51.0587 131.358 50.936C131.491 50.808 131.659 50.744 131.862 50.744C132.059 50.744 132.222 50.808 132.35 50.936C132.478 51.0587 132.542 51.2133 132.542 51.4C132.542 51.5867 132.478 51.744 132.35 51.872C132.222 51.9947 132.059 52.056 131.862 52.056Z" fill="#5D5D5D"/>
<rect width="65" height="65" fill="black"/>
<rect x="7" y="7" width="49.68" height="49.68" fill="#060606"/>
<path d="M22.4323 30.557C23.9186 30.4205 24.7679 29.7759 24.9803 28.6233C25.1016 27.9711 25.2002 27.0308 25.276 25.8023C25.367 24.4828 25.4732 23.4666 25.5945 22.7537C25.7917 21.5707 26.2998 20.6532 27.1188 20.001C27.9378 19.3337 28.9312 19 30.099 19H31.6688L31.2138 21.6845H30.2583C29.7881 21.6845 29.4165 21.7983 29.1435 22.0258C28.8705 22.2381 28.6885 22.5718 28.5975 23.0268C28.5065 23.5121 28.4231 24.3235 28.3473 25.461C28.2259 26.8867 28.097 27.9787 27.9605 28.737C27.824 29.5408 27.5131 30.2082 27.0278 30.739C26.5576 31.2698 25.9054 31.6111 25.0713 31.7627L25.0485 31.8082C26.3225 32.0661 26.9595 32.7713 26.9595 33.924C26.9595 34.2728 26.8913 34.743 26.7548 35.3345C26.6334 35.9108 26.4211 36.8284 26.1178 38.0872C25.6931 39.6949 25.4808 40.6732 25.4808 41.022C25.4808 41.5983 25.8903 41.8865 26.7093 41.8865H27.642L27.1643 44.5937H25.5945C24.5783 44.5937 23.7745 44.3359 23.183 43.8202C22.6067 43.3197 22.3185 42.6069 22.3185 41.6817C22.3185 40.9689 22.6294 39.5432 23.2513 37.4047C23.4181 36.7981 23.5698 36.2217 23.7063 35.6757C23.8428 35.1146 23.911 34.7203 23.911 34.4928C23.911 33.6131 23.274 33.1278 22 33.0368L22.4323 30.557Z" fill="white"/>
<path d="M41.552 33.0368C40.8088 33.0974 40.2173 33.2946 39.7775 33.6283C39.3528 33.9619 39.095 34.4093 39.004 34.9705C38.913 35.4862 38.822 36.3962 38.731 37.7005C38.7158 37.8977 38.6779 38.3451 38.6172 39.0427C38.5717 39.7252 38.4959 40.3243 38.3897 40.84C38.1925 42.023 37.6769 42.9406 36.8427 43.5928C36.0237 44.2601 35.0303 44.5937 33.8625 44.5937H32.2927L32.7705 41.8865H33.726C34.2113 41.8865 34.5829 41.7803 34.8407 41.568C35.1137 41.3557 35.2882 41.0144 35.364 40.5442C35.4702 39.9376 35.5612 39.0958 35.637 38.019C35.7583 36.654 35.8797 35.5999 36.001 34.8567C36.1375 34.0529 36.4484 33.3856 36.9337 32.8548C37.419 32.3239 38.0788 31.9751 38.913 31.8082L38.9357 31.7627C37.6465 31.5049 37.002 30.739 37.002 29.465C37.002 29.2223 37.0247 28.9797 37.0702 28.737C37.1612 28.2517 37.2902 27.6678 37.457 26.9853C37.639 26.2876 37.7603 25.825 37.821 25.5975C38.1698 24.3538 38.3822 23.4969 38.458 23.0268C38.4883 22.8448 38.5035 22.7158 38.5035 22.64C38.5035 22.003 38.094 21.6845 37.275 21.6845H36.3422L36.7972 19H38.367C39.3832 19 40.187 19.2578 40.7785 19.7735C41.37 20.2892 41.6657 21.0096 41.6657 21.9347C41.6657 22.1774 41.643 22.4504 41.5975 22.7537C41.461 23.4817 41.2032 24.5207 40.824 25.8705C40.46 27.099 40.2249 28.0166 40.1187 28.6233C40.0884 28.8053 40.0732 28.9342 40.0732 29.01C40.0732 29.4498 40.2325 29.8062 40.551 30.0792C40.8695 30.3371 41.3472 30.4963 41.9842 30.557L41.552 33.0368Z" fill="white"/>
</svg>
