<svg width="29" height="29" viewBox="0 0 29 29" fill="none" xmlns="http://www.w3.org/2000/svg">
<path d="M14.5 22.3542C14.502 22.9877 14.3042 23.6056 13.9347 24.1202C13.5653 24.6348 13.043 25.0199 12.4422 25.2206C11.8413 25.4213 11.1925 25.4275 10.5879 25.2383C9.98334 25.0491 9.45381 24.6741 9.0746 24.1667H9.06252C8.59711 24.1722 8.13687 24.0687 7.71862 23.8645C7.30038 23.6603 6.93574 23.361 6.65389 22.9906C6.37204 22.6202 6.1808 22.189 6.09548 21.7314C6.01015 21.2738 6.03311 20.8027 6.16252 20.3556C5.52111 20.1574 4.94786 19.784 4.50748 19.2773C4.0671 18.7706 3.77714 18.1509 3.67032 17.4881C3.56351 16.8253 3.64409 16.1459 3.90298 15.5265C4.16187 14.9071 4.58875 14.3725 5.13543 13.9828C4.8115 13.3181 4.74587 12.5568 4.95125 11.8464C5.15664 11.1361 5.61842 10.5272 6.2471 10.1379C6.0852 9.7252 6.017 9.28168 6.04743 8.83939C6.07787 8.39711 6.20618 7.9671 6.42308 7.58046C6.63999 7.19381 6.94009 6.86018 7.30168 6.60368C7.66327 6.34717 8.07733 6.1742 8.51393 6.09725C8.59586 5.65531 8.77537 5.23723 9.03938 4.87348C9.30339 4.50972 9.64525 4.20947 10.04 3.99459C10.4348 3.77972 10.8726 3.65566 11.3214 3.63143C11.7702 3.60721 12.2187 3.68345 12.6344 3.85458C13.1866 4.08311 13.6586 4.4703 13.9907 4.96716C14.3228 5.46401 14.5 6.04821 14.5 6.64583M14.5 22.3542V6.64583M14.5 22.3542C14.4981 22.9877 14.6959 23.6056 15.0653 24.1202C15.4348 24.6348 15.957 25.0199 16.5579 25.2206C17.1587 25.4213 17.8076 25.4275 18.4121 25.2383C19.0167 25.0491 19.5462 24.6741 19.9254 24.1667H19.9375C20.4032 24.1728 20.8639 24.0697 21.2826 23.8657C21.7013 23.6617 22.0664 23.3625 22.3487 22.9921C22.631 22.6216 22.8225 22.1901 22.908 21.7323C22.9936 21.2745 22.9706 20.803 22.8411 20.3556C23.4823 20.157 24.0552 19.7832 24.4952 19.2763C24.9352 18.7694 25.2247 18.1496 25.3311 17.4869C25.4376 16.8242 25.3566 16.1449 25.0975 15.5258C24.8384 14.9066 24.4113 14.3722 23.8646 13.9828C24.1884 13.318 24.2539 12.5565 24.0483 11.8462C23.8426 11.1358 23.3806 10.527 22.7517 10.1379C22.9136 9.72529 22.9819 9.28185 22.9515 8.83964C22.9211 8.39743 22.7929 7.96748 22.5762 7.58085C22.3594 7.19423 22.0594 6.86058 21.698 6.60401C21.3365 6.34744 20.9226 6.17435 20.4861 6.09725C20.3581 5.40388 19.9915 4.77714 19.4499 4.32563C18.9084 3.87411 18.2259 3.62625 17.5209 3.625C16.7197 3.625 15.9513 3.94327 15.3848 4.50978C14.8183 5.0763 14.5 5.84466 14.5 6.64583M4.83335 12.6875C4.83333 12.1881 4.95711 11.6965 5.19361 11.2567C5.43012 10.8169 5.77196 10.4426 6.18857 10.1672C6.60517 9.8919 7.08354 9.72413 7.58086 9.67895C8.07818 9.63377 8.57895 9.71258 9.03835 9.90833M8.70002 20.2408C7.87959 20.6 6.95523 20.6428 6.10513 20.3609C5.25503 20.079 4.53938 19.4924 4.09614 18.7141C3.65291 17.9359 3.51347 17.0211 3.7047 16.1461C3.89593 15.2712 4.40431 14.498 5.13181 13.9756M24.1667 12.6875C24.1668 12.188 24.043 11.6962 23.8064 11.2563C23.5699 10.8163 23.2279 10.4419 22.8111 10.1665C22.3944 9.89114 21.9158 9.72342 21.4183 9.67836C20.9208 9.6333 20.4199 9.71232 19.9605 9.90833M20.2988 20.2408C21.1194 20.601 22.0442 20.6445 22.8949 20.3629C23.7457 20.0813 24.4619 19.4946 24.9055 18.7159C25.3491 17.9373 25.4886 17.022 25.297 16.1466C25.1055 15.2712 24.5965 14.4978 23.8682 13.9756" stroke="#B9B9B9" stroke-width="2" stroke-linecap="round" stroke-linejoin="round"/>
</svg>
