<svg width="65" height="65" viewBox="0 0 65 65" fill="none" xmlns="http://www.w3.org/2000/svg">
<rect width="65" height="65" fill="black"/>
<rect x="7" y="7" width="49.68" height="49.68" fill="#060606"/>
<path d="M22.4323 30.557C23.9186 30.4205 24.7679 29.7759 24.9803 28.6233C25.1016 27.9711 25.2002 27.0308 25.276 25.8023C25.367 24.4828 25.4732 23.4666 25.5945 22.7537C25.7917 21.5707 26.2998 20.6532 27.1188 20.001C27.9378 19.3337 28.9312 19 30.099 19H31.6688L31.2138 21.6845H30.2583C29.7881 21.6845 29.4165 21.7983 29.1435 22.0258C28.8705 22.2381 28.6885 22.5718 28.5975 23.0268C28.5065 23.5121 28.4231 24.3235 28.3473 25.461C28.2259 26.8867 28.097 27.9787 27.9605 28.737C27.824 29.5408 27.5131 30.2082 27.0278 30.739C26.5576 31.2698 25.9054 31.6111 25.0713 31.7627L25.0485 31.8082C26.3225 32.0661 26.9595 32.7713 26.9595 33.924C26.9595 34.2728 26.8913 34.743 26.7548 35.3345C26.6334 35.9108 26.4211 36.8284 26.1178 38.0872C25.6931 39.6949 25.4808 40.6732 25.4808 41.022C25.4808 41.5983 25.8903 41.8865 26.7093 41.8865H27.642L27.1643 44.5937H25.5945C24.5783 44.5937 23.7745 44.3359 23.183 43.8202C22.6067 43.3197 22.3185 42.6069 22.3185 41.6817C22.3185 40.9689 22.6294 39.5432 23.2513 37.4047C23.4181 36.7981 23.5698 36.2217 23.7063 35.6757C23.8428 35.1146 23.911 34.7203 23.911 34.4928C23.911 33.6131 23.274 33.1278 22 33.0368L22.4323 30.557Z" fill="white"/>
<path d="M41.552 33.0368C40.8088 33.0974 40.2173 33.2946 39.7775 33.6283C39.3528 33.9619 39.095 34.4093 39.004 34.9705C38.913 35.4862 38.822 36.3962 38.731 37.7005C38.7158 37.8977 38.6779 38.3451 38.6172 39.0427C38.5717 39.7252 38.4959 40.3243 38.3897 40.84C38.1925 42.023 37.6769 42.9406 36.8427 43.5928C36.0237 44.2601 35.0303 44.5937 33.8625 44.5937H32.2927L32.7705 41.8865H33.726C34.2113 41.8865 34.5829 41.7803 34.8407 41.568C35.1137 41.3557 35.2882 41.0144 35.364 40.5442C35.4702 39.9376 35.5612 39.0958 35.637 38.019C35.7583 36.654 35.8797 35.5999 36.001 34.8567C36.1375 34.0529 36.4484 33.3856 36.9337 32.8548C37.419 32.3239 38.0788 31.9751 38.913 31.8082L38.9357 31.7627C37.6465 31.5049 37.002 30.739 37.002 29.465C37.002 29.2223 37.0247 28.9797 37.0702 28.737C37.1612 28.2517 37.2902 27.6678 37.457 26.9853C37.639 26.2876 37.7603 25.825 37.821 25.5975C38.1698 24.3538 38.3822 23.4969 38.458 23.0268C38.4883 22.8448 38.5035 22.7158 38.5035 22.64C38.5035 22.003 38.094 21.6845 37.275 21.6845H36.3422L36.7972 19H38.367C39.3832 19 40.187 19.2578 40.7785 19.7735C41.37 20.2892 41.6657 21.0096 41.6657 21.9347C41.6657 22.1774 41.643 22.4504 41.5975 22.7537C41.461 23.4817 41.2032 24.5207 40.824 25.8705C40.46 27.099 40.2249 28.0166 40.1187 28.6233C40.0884 28.8053 40.0732 28.9342 40.0732 29.01C40.0732 29.4498 40.2325 29.8062 40.551 30.0792C40.8695 30.3371 41.3472 30.4963 41.9842 30.557L41.552 33.0368Z" fill="white"/>
</svg>
