<svg width="22" height="22" viewBox="0 0 22 22" fill="none" xmlns="http://www.w3.org/2000/svg">
<path d="M11 21C16.523 21 21 16.523 21 11C21 5.477 16.523 1 11 1C5.47701 1 1.00001 5.477 1.00001 11C0.997756 12.978 1.58395 14.9121 2.68401 16.556C2.80567 16.7377 2.57767 17.8857 2.00001 20C4.11467 19.4223 5.26267 19.1943 5.44401 19.316C7.08795 20.4161 9.02196 21.0023 11 21Z" stroke="#B9B9B9" stroke-width="2" stroke-linejoin="round"/>
<path d="M7.30249 8.91H15.692M9.92349 6.869L8.46649 15.131M13.4235 6.869L11.9665 15.131M6.30249 13H14.692" stroke="#B9B9B9" stroke-width="2" stroke-linecap="round" stroke-linejoin="round"/>
</svg>
